<?xml version="1.0" encoding="UTF-8" standalone="no"?>
<!-- Created with Inkscape (http://www.inkscape.org/) -->

<svg
   width="48"
   height="48"
   viewBox="0 0 48 48"
   version="1.1"
   id="svg1"
   inkscape:version="1.3.2 (091e20ef0f, 2023-11-25)"
   sodipodi:docname="favicon_baked.svg"
   inkscape:export-filename="favicon.png"
   inkscape:export-xdpi="96"
   inkscape:export-ydpi="96"
   xmlns:inkscape="http://www.inkscape.org/namespaces/inkscape"
   xmlns:sodipodi="http://sodipodi.sourceforge.net/DTD/sodipodi-0.dtd"
   xmlns="http://www.w3.org/2000/svg"
   xmlns:svg="http://www.w3.org/2000/svg">
  <sodipodi:namedview
     id="namedview1"
     pagecolor="#505050"
     bordercolor="#ffffff"
     borderopacity="1"
     inkscape:showpageshadow="0"
     inkscape:pageopacity="0"
     inkscape:pagecheckerboard="1"
     inkscape:deskcolor="#505050"
     inkscape:document-units="px"
     inkscape:zoom="12.427944"
     inkscape:cx="21.282684"
     inkscape:cy="23.616135"
     inkscape:window-width="1645"
     inkscape:window-height="997"
     inkscape:window-x="0"
     inkscape:window-y="0"
     inkscape:window-maximized="0"
     inkscape:current-layer="layer1" />
  <defs
     id="defs1" />
  <g
     inkscape:label="Taso 1"
     inkscape:groupmode="layer"
     id="layer1">
    <g
       id="text1"
       aria-label="OLMO&#10;NOKO">
      <path
         style="font-weight:bold;font-size:12px;font-family:Montserrat;-inkscape-font-specification:'Montserrat, Bold';fill:#aa4400"
         d="m 9.5820006,20.638032 c 2.6400004,0 4.5960004,-1.836 4.5960004,-4.344 0,-2.508 -1.956,-4.344 -4.5960004,-4.344 -2.652,0 -4.596,1.848 -4.596,4.344 0,2.496 1.944,4.344 4.596,4.344 z m 0,-1.656 c -1.5,0 -2.628,-1.092 -2.628,-2.688 0,-1.596 1.128,-2.688 2.628,-2.688 1.5000004,0 2.6280004,1.092 2.6280004,2.688 0,1.596 -1.128,2.688 -2.6280004,2.688 z m 12.2159984,1.512 v -1.584 h -4.212 v -6.816 h -1.944 v 8.4 z m 10.536001,-8.4 h -1.596 l -3.096,5.22 -3.144,-5.22 H 22.89 v 8.4 h 1.824 v -4.932 l 2.46,4.044 h 0.876 l 2.472,-4.152 0.012,5.04 h 1.824 z m 6.083999,8.544 c 2.64,0 4.596,-1.836 4.596,-4.344 0,-2.508 -1.956,-4.344 -4.596,-4.344 -2.652,0 -4.596,1.848 -4.596,4.344 0,2.496 1.944,4.344 4.596,4.344 z m 0,-1.656 c -1.5,0 -2.628,-1.092 -2.628,-2.688 0,-1.596 1.128,-2.688 2.628,-2.688 1.5,0 2.628,1.092 2.628,2.688 0,1.596 -1.128,2.688 -2.628,2.688 z"
         id="path1" />
      <path
         style="font-weight:bold;font-size:12px;font-family:Montserrat;-inkscape-font-specification:'Montserrat, Bold';fill:#aa4400"
         d="m 11.298001,32.605967 -4.1760004,-5.1 h -1.608 v 8.4 h 1.92 v -5.1 l 4.1880004,5.1 h 1.596 v -8.4 h -1.92 z m 7.980006,3.444 c 2.64,0 4.596,-1.836 4.596,-4.344 0,-2.508 -1.956,-4.344 -4.596,-4.344 -2.652,0 -4.596,1.848 -4.596,4.344 0,2.496 1.944,4.344 4.596,4.344 z m 0,-1.656 c -1.5,0 -2.628,-1.092 -2.628,-2.688 0,-1.596 1.128,-2.688 2.628,-2.688 1.5,0 2.628,1.092 2.628,2.688 0,1.596 -1.128,2.688 -2.628,2.688 z m 14.075999,1.512 -3.684,-4.656 3.48,-3.744 h -2.16 l -3.72,3.924 v -3.924 h -1.932 v 8.4 h 1.932 v -2.124 l 1.128,-1.176 2.688,3.3 z m 4.632002,0.144 c 2.64,0 4.596,-1.836 4.596,-4.344 0,-2.508 -1.956,-4.344 -4.596,-4.344 -2.652,0 -4.596,1.848 -4.596,4.344 0,2.496 1.944,4.344 4.596,4.344 z m 0,-1.656 c -1.5,0 -2.628,-1.092 -2.628,-2.688 0,-1.596 1.128,-2.688 2.628,-2.688 1.5,0 2.628,1.092 2.628,2.688 0,1.596 -1.128,2.688 -2.628,2.688 z"
         id="path2" />
    </g>
  </g>
</svg>
